<?xml version="1.0" encoding="UTF-8"?>
<svg width="64px" height="64px" viewBox="0 0 64 64" version="1.1" xmlns="http://www.w3.org/2000/svg" xmlns:xlink="http://www.w3.org/1999/xlink">
    <title>Icon Mac</title>
    <g id="Page-1" stroke="none" stroke-width="1" fill="none" fill-rule="evenodd">
        <g id="Login" transform="translate(-607.000000, -442.000000)">
            <g id="Main" transform="translate(607.000000, 354.000000)">
                <g id="Section-Mac" transform="translate(0.000000, 88.000000)">
                    <g id="Icon-Mac">
                        <rect id="Rectangle" fill="#D8D8D8" x="0" y="0" width="64" height="64" rx="12" />
                        <g id="apple" opacity="0.746675037" transform="translate(23.000000, 22.000000)" fill="#000000">
                            <path d="M15.71,17.5 C14.88,18.74 14,19.95 12.66,19.97 C11.32,20 10.89,19.18 9.37,19.18 C7.84,19.18 7.37,19.95 6.1,20 C4.79,20.05 3.8,18.68 2.96,17.47 C1.25,15 -0.06,10.45 1.7,7.39 C2.57,5.87 4.13,4.91 5.82,4.88 C7.1,4.86 8.32,5.75 9.11,5.75 C9.89,5.75 11.37,4.68 12.92,4.84 C13.57,4.87 15.39,5.1 16.56,6.82 C16.47,6.88 14.39,8.1 14.41,10.63 C14.44,13.65 17.06,14.66 17.09,14.67 C17.06,14.74 16.67,16.11 15.71,17.5 M10,1.5 C10.73,0.67 11.94,0.04 12.94,0 C13.07,1.17 12.6,2.35 11.9,3.19 C11.21,4.04 10.07,4.7 8.95,4.61 C8.8,3.46 9.36,2.26 10,1.5 Z" id="Shape" />
                        </g>
                    </g>
                </g>
            </g>
        </g>
    </g>
</svg>